<svg width="34" height="34" viewBox="0 0 34 34" fill="none" xmlns="http://www.w3.org/2000/svg">
<path d="M17 0C7.62646 0 0 7.62646 0 17C0 26.3735 7.62646 34 17 34C26.3735 34 34 26.3735 34 17C34 7.62646 26.3735 0 17 0ZM17 2.61538C24.9599 2.61538 31.3846 9.04008 31.3846 17C31.3846 24.9599 24.9599 31.3846 17 31.3846C9.04008 31.3846 2.61538 24.9599 2.61538 17C2.61538 9.04008 9.04008 2.61538 17 2.61538ZM15.6923 9.15385V15.6923H9.15385V18.3077H15.6923V24.8462H18.3077V18.3077H24.8462V15.6923H18.3077V9.15385H15.6923Z" fill="#73848C"/>
</svg>
