<svg width="24" height="24" viewBox="0 0 24 24" fill="none" xmlns="http://www.w3.org/2000/svg">
<path fill-rule="evenodd" clip-rule="evenodd" d="M9.18576 3.74609C8.97839 3.74609 8.81029 3.9142 8.81029 4.12156V5.6225H15.1886V4.12156C15.1886 3.9142 15.0205 3.74609 14.8131 3.74609H9.18576ZM16.6886 5.6225V4.12156C16.6886 3.08577 15.8489 2.24609 14.8131 2.24609H9.18576C8.14996 2.24609 7.31029 3.08577 7.31029 4.12156V5.6225H3.99609C3.58188 5.6225 3.24609 5.95829 3.24609 6.3725C3.24609 6.78671 3.58188 7.1225 3.99609 7.1225H4.55209L5.46443 18.9828C5.5847 20.5463 6.88843 21.7536 8.45652 21.7536H15.5423C17.1104 21.7536 18.4142 20.5463 18.5344 18.9828L19.4468 7.1225H20.0028C20.417 7.1225 20.7528 6.78671 20.7528 6.3725C20.7528 5.95829 20.417 5.6225 20.0028 5.6225H16.6886ZM6.05652 7.1225L6.96001 18.8678C7.02016 19.6498 7.67223 20.2536 8.45652 20.2536H15.5423C16.3266 20.2536 16.9787 19.6498 17.0388 18.8678L17.9423 7.1225H6.05652ZM10.0299 10.1244C10.4441 10.1244 10.7799 10.4602 10.7799 10.8744V16.5017C10.7799 16.9159 10.4441 17.2517 10.0299 17.2517C9.61564 17.2517 9.27986 16.9159 9.27986 16.5017V10.8744C9.27986 10.4602 9.61564 10.1244 10.0299 10.1244ZM13.969 10.1244C14.3832 10.1244 14.719 10.4602 14.719 10.8744V16.5017C14.719 16.9159 14.3832 17.2517 13.969 17.2517C13.5548 17.2517 13.219 16.9159 13.219 16.5017V10.8744C13.219 10.4602 13.5548 10.1244 13.969 10.1244Z" fill="#5C5C5C"/>
</svg>
